<svg width="96" height="32" viewBox="0 0 96 32" fill="none" xmlns="http://www.w3.org/2000/svg">
<path d="M40.9955 25.761H41.8237V31.9121H40.9955V25.761Z" fill="white"/>
<path d="M43.0308 27.5184H43.8325V31.9121H43.0308V27.5184ZM46.1144 29.2232C46.1144 28.8365 46.0234 28.5553 45.8413 28.3796C45.6651 28.198 45.4008 28.1072 45.0484 28.1072C44.7312 28.1072 44.4522 28.198 44.2114 28.3796C43.9705 28.5553 43.7679 28.8277 43.6034 29.1968L43.3832 28.9244C43.4889 28.6432 43.6358 28.3913 43.8237 28.1687C44.0117 27.9461 44.2349 27.7674 44.4933 27.6327C44.7517 27.4979 45.0366 27.4305 45.3479 27.4305C45.8472 27.4305 46.2319 27.5682 46.5021 27.8435C46.7723 28.1189 46.9074 28.5055 46.9074 29.0035V31.9121H46.1144V29.2232Z" fill="white"/>
<path d="M47.4955 27.5184H48.3325L49.707 31.2794H49.522L50.7995 27.5184H51.5836L50.0153 31.9121H49.1607L47.4955 27.5184Z" fill="white"/>
<path d="M54.1522 32C53.7058 32 53.3064 31.9062 52.954 31.7188C52.6074 31.5313 52.3343 31.2647 52.1346 30.9191C51.9349 30.5735 51.835 30.1722 51.835 29.7152C51.835 29.27 51.9349 28.8746 52.1346 28.529C52.3343 28.1775 52.6045 27.908 52.9452 27.7205C53.2858 27.5272 53.6559 27.4305 54.0553 27.4305C54.4312 27.4305 54.7689 27.5067 55.0685 27.659C55.3681 27.8113 55.603 28.0339 55.7733 28.3269C55.9437 28.6139 56.0288 28.9595 56.0288 29.3638C56.0288 29.5219 56.023 29.6742 56.0112 29.8207H52.5928V29.2232H55.5355L55.2888 29.5571C55.3123 29.0884 55.2065 28.7252 54.9716 28.4674C54.7425 28.2097 54.4312 28.0808 54.0377 28.0808C53.7616 28.0808 53.5179 28.1452 53.3064 28.2741C53.0949 28.403 52.9305 28.5905 52.813 28.8365C52.7014 29.0767 52.6456 29.3696 52.6456 29.7152C52.6456 30.0492 52.7132 30.3362 52.8483 30.5764C52.9833 30.8166 53.1684 30.9982 53.4033 31.1212C53.6441 31.2442 53.9173 31.3058 54.2227 31.3058C54.4988 31.3058 54.7543 31.2618 54.9892 31.1739C55.2241 31.0802 55.4532 30.9338 55.6764 30.7346L55.9584 31.3585C55.7175 31.5635 55.4415 31.7217 55.1302 31.833C54.8189 31.9443 54.4929 32 54.1522 32Z" fill="white"/>
<path d="M58.299 32C57.9759 32 57.6734 31.9677 57.3915 31.9033C57.1096 31.8389 56.8717 31.748 56.6779 31.6309L56.8453 30.8927C57.0215 31.0275 57.2447 31.1359 57.5148 31.2179C57.785 31.294 58.0582 31.3321 58.3342 31.3321C58.669 31.3321 58.9245 31.2706 59.1007 31.1476C59.2828 31.0246 59.3739 30.8547 59.3739 30.6379C59.3739 30.4856 59.3327 30.3684 59.2505 30.2864C59.1683 30.2044 59.0537 30.1458 58.9069 30.1107C58.7601 30.0697 58.5545 30.0287 58.2902 29.9877C57.973 29.9408 57.7057 29.8793 57.4884 29.8031C57.2711 29.7211 57.0949 29.5952 56.9598 29.4253C56.8306 29.2554 56.766 29.0269 56.766 28.7399C56.766 28.4938 56.8306 28.2712 56.9598 28.072C57.0949 27.8728 57.2917 27.7176 57.5501 27.6063C57.8144 27.4891 58.1316 27.4305 58.5016 27.4305C58.7601 27.4305 59.0273 27.4569 59.3034 27.5096C59.5794 27.5624 59.8085 27.6356 59.9906 27.7293L59.8144 28.4235C59.5912 28.3122 59.3651 28.2273 59.136 28.1687C58.9128 28.1101 58.6866 28.0808 58.4576 28.0808C58.1521 28.0808 57.9201 28.1335 57.7615 28.239C57.603 28.3386 57.5237 28.4821 57.5237 28.6696C57.5237 28.857 57.5883 28.9888 57.7175 29.065C57.8467 29.1411 58.0758 29.2056 58.4047 29.2583L58.5897 29.2847C58.9363 29.3374 59.2153 29.4077 59.4267 29.4956C59.644 29.5776 59.8144 29.7035 59.9377 29.8734C60.067 30.0433 60.1316 30.2718 60.1316 30.5588C60.1316 30.8342 60.0581 31.0802 59.9113 31.297C59.7645 31.5137 59.553 31.6865 59.2769 31.8154C59.0009 31.9384 58.6749 32 58.299 32Z" fill="white"/>
<path d="M62.8385 32C62.4156 32 62.0779 31.8974 61.8253 31.6924C61.5727 31.4874 61.4465 31.1593 61.4465 30.7082V26.1652H62.2394V30.6028C62.2394 30.8547 62.2952 31.0333 62.4068 31.1388C62.5243 31.2384 62.7064 31.2882 62.9531 31.2882C63.141 31.2882 63.3436 31.2501 63.561 31.1739L63.5786 31.8506C63.4787 31.8974 63.3642 31.9326 63.235 31.956C63.1058 31.9853 62.9736 32 62.8385 32ZM60.5478 27.5184H63.5434V28.195H60.5478V27.5184Z" fill="white"/>
<path d="M64.4117 27.5184H65.2134V31.9121H64.4117V27.5184ZM64.8169 26.6573C64.6231 26.6573 64.4792 26.6133 64.3852 26.5254C64.2971 26.4317 64.2531 26.297 64.2531 26.1212C64.2531 25.9396 64.2971 25.8049 64.3852 25.717C64.4792 25.6291 64.6231 25.5852 64.8169 25.5852C65.0108 25.5852 65.1517 25.6291 65.2399 25.717C65.328 25.8049 65.372 25.9396 65.372 26.1212C65.372 26.297 65.328 26.4317 65.2399 26.5254C65.1517 26.6133 65.0108 26.6573 64.8169 26.6573Z" fill="white"/>
<path d="M66.339 27.5184H67.1407V31.9121H66.339V27.5184ZM69.2112 29.1265C69.2112 28.775 69.1289 28.5172 68.9645 28.3532C68.8 28.1892 68.5651 28.1072 68.2596 28.1072C67.9601 28.1072 67.6987 28.195 67.4755 28.3708C67.2523 28.5465 67.0644 28.8102 66.9116 29.1616L66.7178 28.8629C66.8118 28.5993 66.9439 28.3591 67.1143 28.1423C67.2905 27.9256 67.499 27.7527 67.7398 27.6239C67.9806 27.495 68.2479 27.4305 68.5416 27.4305C68.8411 27.4305 69.0996 27.4891 69.3169 27.6063C69.5401 27.7235 69.7104 27.8963 69.8279 28.1247C69.9454 28.3474 70.0041 28.6168 70.0041 28.9332V31.9121H69.2112V29.1265ZM71.9865 29.1265C71.9865 28.775 71.9042 28.5172 71.7398 28.3532C71.5753 28.1892 71.3374 28.1072 71.0261 28.1072C70.7325 28.1072 70.474 28.195 70.2508 28.3708C70.0276 28.5465 69.8397 28.8102 69.6869 29.1616L69.4931 28.8629C69.5871 28.5993 69.7192 28.3591 69.8896 28.1423C70.0658 27.9256 70.2743 27.7527 70.5151 27.6239C70.7559 27.495 71.0232 27.4305 71.3169 27.4305C71.6164 27.4305 71.8749 27.4891 72.0922 27.6063C72.3154 27.7235 72.4857 27.8963 72.6032 28.1247C72.7207 28.3474 72.7794 28.6168 72.7794 28.9332V31.9121H71.9865V29.1265Z" fill="white"/>
<path d="M75.8773 32C75.4309 32 75.0315 31.9062 74.679 31.7188C74.3325 31.5313 74.0594 31.2647 73.8597 30.9191C73.66 30.5735 73.5601 30.1722 73.5601 29.7152C73.5601 29.27 73.66 28.8746 73.8597 28.529C74.0594 28.1775 74.3296 27.908 74.6702 27.7205C75.0109 27.5272 75.3809 27.4305 75.7803 27.4305C76.1563 27.4305 76.494 27.5067 76.7936 27.659C77.0931 27.8113 77.3281 28.0339 77.4984 28.3269C77.6687 28.6139 77.7539 28.9595 77.7539 29.3638C77.7539 29.5219 77.748 29.6742 77.7363 29.8207H74.3178V29.2232H77.2605L77.0138 29.5571C77.0373 29.0884 76.9316 28.7252 76.6966 28.4674C76.4676 28.2097 76.1563 28.0808 75.7627 28.0808C75.4867 28.0808 75.2429 28.1452 75.0315 28.2741C74.82 28.403 74.6555 28.5905 74.5381 28.8365C74.4265 29.0767 74.3707 29.3696 74.3707 29.7152C74.3707 30.0492 74.4382 30.3362 74.5733 30.5764C74.7084 30.8166 74.8934 30.9982 75.1284 31.1212C75.3692 31.2442 75.6423 31.3058 75.9478 31.3058C76.2238 31.3058 76.4793 31.2618 76.7143 31.1739C76.9492 31.0802 77.1783 30.9338 77.4015 30.7346L77.6834 31.3585C77.4426 31.5635 77.1665 31.7217 76.8552 31.833C76.5439 31.9443 76.2179 32 75.8773 32Z" fill="white"/>
<path d="M78.548 27.5184H79.3498V31.9121H78.548V27.5184ZM81.6317 29.2232C81.6317 28.8365 81.5406 28.5553 81.3586 28.3796C81.1823 28.198 80.918 28.1072 80.5656 28.1072C80.2484 28.1072 79.9694 28.198 79.7286 28.3796C79.4878 28.5553 79.2852 28.8277 79.1207 29.1968L78.9004 28.9244C79.0062 28.6432 79.153 28.3913 79.341 28.1687C79.5289 27.9461 79.7521 27.7674 80.0106 27.6327C80.269 27.4979 80.5539 27.4305 80.8652 27.4305C81.3644 27.4305 81.7492 27.5682 82.0193 27.8435C82.2895 28.1189 82.4246 28.5055 82.4246 29.0035V31.9121H81.6317V29.2232Z" fill="white"/>
<path d="M85.381 32C84.958 32 84.6203 31.8974 84.3677 31.6924C84.1152 31.4874 83.9889 31.1593 83.9889 30.7082V26.1652H84.7818V30.6028C84.7818 30.8547 84.8376 31.0333 84.9492 31.1388C85.0667 31.2384 85.2488 31.2882 85.4955 31.2882C85.6834 31.2882 85.8861 31.2501 86.1034 31.1739L86.121 31.8506C86.0212 31.8974 85.9066 31.9326 85.7774 31.956C85.6482 31.9853 85.516 32 85.381 32ZM83.0902 27.5184H86.0858V28.195H83.0902V27.5184Z" fill="white"/>
<path d="M88.8426 32C88.4256 32 88.0438 31.9091 87.6973 31.7275C87.3507 31.5401 87.0747 31.2735 86.8691 30.9279C86.6635 30.5823 86.5607 30.178 86.5607 29.7152C86.5607 29.2524 86.6635 28.8482 86.8691 28.5026C87.0747 28.157 87.3507 27.8933 87.6973 27.7117C88.0438 27.5243 88.4256 27.4305 88.8426 27.4305C89.2479 27.4305 89.6238 27.5243 89.9704 27.7117C90.3228 27.8933 90.6018 28.157 90.8074 28.5026C91.013 28.8482 91.1157 29.2524 91.1157 29.7152C91.1157 30.1722 91.013 30.5764 90.8074 30.9279C90.6018 31.2735 90.3228 31.5401 89.9704 31.7275C89.6238 31.9091 89.2479 32 88.8426 32ZM88.8426 31.297C89.1246 31.297 89.3742 31.2325 89.5915 31.1036C89.8147 30.9748 89.988 30.7902 90.1114 30.55C90.2347 30.3099 90.2964 30.0316 90.2964 29.7152C90.2964 29.393 90.2347 29.1148 90.1114 28.8805C89.988 28.6403 89.8147 28.4557 89.5915 28.3269C89.3742 28.198 89.1246 28.1335 88.8426 28.1335C88.549 28.1335 88.2905 28.198 88.0673 28.3269C87.85 28.4557 87.6797 28.6403 87.5563 28.8805C87.4388 29.1148 87.3801 29.393 87.3801 29.7152C87.3801 30.0316 87.4388 30.3099 87.5563 30.55C87.6797 30.7902 87.85 30.9748 88.0673 31.1036C88.2905 31.2325 88.549 31.297 88.8426 31.297Z" fill="white"/>
<path d="M93.2828 32C92.9597 32 92.6572 31.9677 92.3753 31.9033C92.0934 31.8389 91.8555 31.748 91.6617 31.6309L91.8291 30.8927C92.0053 31.0275 92.2285 31.1359 92.4986 31.2179C92.7688 31.294 93.042 31.3321 93.318 31.3321C93.6528 31.3321 93.9083 31.2706 94.0845 31.1476C94.2666 31.0246 94.3577 30.8547 94.3577 30.6379C94.3577 30.4856 94.3165 30.3684 94.2343 30.2864C94.1521 30.2044 94.0375 30.1458 93.8907 30.1107C93.7439 30.0697 93.5383 30.0287 93.274 29.9877C92.9568 29.9408 92.6895 29.8793 92.4722 29.8031C92.2549 29.7211 92.0787 29.5952 91.9436 29.4253C91.8144 29.2554 91.7498 29.0269 91.7498 28.7399C91.7498 28.4938 91.8144 28.2712 91.9436 28.072C92.0787 27.8728 92.2754 27.7176 92.5339 27.6063C92.7982 27.4891 93.1154 27.4305 93.4854 27.4305C93.7439 27.4305 94.0111 27.4569 94.2872 27.5096C94.5632 27.5624 94.7923 27.6356 94.9744 27.7293L94.7982 28.4235C94.575 28.3122 94.3489 28.2273 94.1198 28.1687C93.8966 28.1101 93.6704 28.0808 93.4414 28.0808C93.1359 28.0808 92.9039 28.1335 92.7453 28.239C92.5868 28.3386 92.5075 28.4821 92.5075 28.6696C92.5075 28.857 92.5721 28.9888 92.7013 29.065C92.8305 29.1411 93.0596 29.2056 93.3885 29.2583L93.5735 29.2847C93.9201 29.3374 94.1991 29.4077 94.4105 29.4956C94.6278 29.5776 94.7982 29.7035 94.9215 29.8734C95.0508 30.0433 95.1154 30.2718 95.1154 30.5588C95.1154 30.8342 95.0419 31.0802 94.8951 31.297C94.7483 31.5137 94.5368 31.6865 94.2607 31.8154C93.9847 31.9384 93.6587 32 93.2828 32Z" fill="white"/>
<path d="M84.8933 11.1478V20.921H80.5754V3.77559H84.8933V5.85638H85.531C86.7026 4.30284 88.7907 3.46015 90.8788 3.46015C93.8503 3.46015 95.4801 5.18787 95.4801 7.51347V20.921H91.1622V7.73946H88.0443C86.4192 7.763 84.8933 8.96346 84.8933 11.1478ZM74.0986 10.3005C73.9899 8.32793 72.7522 6.80732 70.5554 6.80732C70.0819 6.78139 69.608 6.85296 69.1635 7.01753C68.7189 7.18211 68.3131 7.43619 67.9713 7.76391C67.6296 8.09164 67.3593 8.48599 67.1772 8.92239C66.9952 9.3588 66.9053 9.8279 66.9131 10.3005H74.0986ZM78.4164 13.4405H66.8044C66.9131 15.7002 68.2217 17.5691 70.735 17.5691C72.4687 17.5691 74.1316 16.6276 74.382 14.9234H78.3456C77.8732 18.8732 75.1946 21.1658 70.6641 21.1658C65.4959 21.1658 62.5574 18.0634 62.5574 12.3153C62.5574 6.73671 65.425 3.46015 70.6641 3.46015C76.0071 3.46015 78.8416 6.94856 78.4164 13.4405ZM52.254 7.17453V20.921H56.5719V7.73946H61.6693V3.75202H55.9011C54.0256 3.77556 52.254 4.97604 52.254 7.17453ZM40.8924 7.17453V20.921H45.2103V7.73946H50.3076V3.75202H44.5347C42.6592 3.77556 40.8924 4.97604 40.8924 7.17453ZM28.7466 17.8328C27.2962 17.8328 26.4128 17.089 26.4128 15.7473C26.4128 14.302 27.4002 13.3134 29.5969 13.3134H32.7479V13.6664C32.7598 14.2012 32.6657 14.733 32.4708 15.2314C32.276 15.7297 31.9843 16.1849 31.6126 16.5707C31.2408 16.9564 30.7963 17.2652 30.3044 17.4794C29.8126 17.6936 29.2832 17.8089 28.7466 17.8186V17.8328ZM27.2962 21.2176C28.3134 21.2255 29.3193 21.0043 30.2387 20.5706C31.1582 20.137 31.9674 19.502 32.6062 18.7131H33.244C33.3857 20.3373 34.4486 20.9351 36.2863 20.9351H38.3083V17.4091H36.891V7.26869C36.891 5.009 35.0486 3.77559 32.9605 3.77559H23.7578L23.4744 7.5841H32.7479V10.3711H28.3592C24.3909 10.3711 22.2178 12.2777 22.2178 15.8038C22.2319 18.8732 23.9326 21.2035 27.2962 21.2035V21.2176ZM17.1723 0.0329574L15.9677 17.2867H15.0843L14.2339 6.87794C14.2199 6.41628 14.1142 5.96197 13.9229 5.54129C13.7315 5.12061 13.4584 4.74191 13.1192 4.42712C12.78 4.11233 12.3816 3.86769 11.9469 3.70737C11.5122 3.54705 11.05 3.47422 10.5869 3.49311H9.87823C8.95002 3.46114 8.04658 3.7951 7.36385 4.42258C6.68112 5.05005 6.27414 5.92045 6.23118 6.84499L5.38083 17.2537H4.49741L3.82658 7.5841H0L0.67556 17.781C0.690692 18.2452 0.798302 18.7017 0.992136 19.124C1.18597 19.5464 1.46215 19.9261 1.80461 20.241C2.14708 20.556 2.54899 20.8 2.98695 20.9588C3.42491 21.1175 3.89017 21.1879 4.35568 21.1658H5.38083C6.31453 21.1976 7.2228 20.8592 7.90646 20.2246C8.59013 19.5901 8.99341 18.7114 9.02788 17.781L9.87823 7.37225H10.5869L11.4372 17.781C11.4512 18.2427 11.5569 18.697 11.7482 19.1177C11.9396 19.5383 12.2127 19.917 12.5519 20.2318C12.8911 20.5466 13.2895 20.7912 13.7242 20.9516C14.1589 21.1119 14.6212 21.1847 15.0843 21.1658H16.0716C16.5353 21.1873 16.9987 21.1162 17.4345 20.9569C17.8703 20.7975 18.2697 20.553 18.6095 20.2377C18.9492 19.9224 19.2223 19.5427 19.4127 19.1208C19.6032 18.699 19.7072 18.2435 19.7187 17.781L20.9942 0L17.1723 0.0329574Z" fill="white"/>
</svg>
